<svg width="32" height="20" viewBox="0 0 32 20" xmlns="http://www.w3.org/2000/svg">
  <rect width="32" height="20" rx="2" fill="#F8FAFC"/>
  <path d="M11.976 7.58L9.4 14.42H7.653L5.918 9.11C5.837 8.804 5.767 8.686 5.535 8.562C5.159 8.366 4.571 8.18 4.057 8.058L4.101 7.58H6.793C7.129 7.58 7.431 7.79 7.512 8.16L8.373 12.099L9.97 7.58H11.976ZM19.696 11.944C19.7 10.018 17.133 9.926 17.144 9.129C17.147 8.887 17.381 8.629 17.872 8.558C18.118 8.525 18.767 8.499 19.512 8.8L19.883 7.392C19.452 7.232 18.892 7.078 18.189 7.078C16.312 7.078 15.004 8.046 14.995 9.44C14.987 10.469 15.936 11.04 16.638 11.378C17.361 11.724 17.603 11.949 17.6 12.258C17.596 12.738 17.027 12.953 16.504 12.96C15.64 12.972 15.146 12.767 14.755 12.616L14.371 14.071C14.764 14.22 15.501 14.351 16.264 14.359C18.269 14.359 19.564 13.401 19.57 11.944H19.696ZM23.577 14.42H25.237L23.463 7.58H21.88C21.582 7.58 21.324 7.76 21.214 8.034L18.17 14.42H20.166L20.561 13.289H23.026L23.268 14.42H23.577ZM21.095 11.891L22.069 9.256L22.63 11.891H21.095ZM15.053 7.58L13.48 14.42H11.577L13.149 7.58H15.053Z" fill="#172B85"/>
  <path d="M13.442 8.486L13.181 7.087C12.827 6.916 12.395 6.779 11.892 6.679C10.102 6.345 8.164 6.401 6.643 7.794C5.122 9.187 4.474 11.511 4 12.967L5.544 7.579H7.53C7.866 7.579 8.168 7.789 8.249 8.159L9.11 12.098L10.707 7.579H12.713L11.349 11.736C11.736 10.318 12.471 9.237 13.442 8.486Z" fill="#F49A1C"/>
</svg>
